Coordinates
version=1
nRows=10
nColumns=40
inDegrees=yes

Units are S.I. units (second, meters, Newtons, ...)
If the header above contains a line with 'inDegrees', this indicates whether rotational values are in degrees (yes) or radians (no).

endheader
time	pelvis_tilt	pelvis_list	pelvis_rotation	pelvis_tx	pelvis_ty	pelvis_tz	hip_flexion_r	hip_adduction_r	hip_rotation_r	knee_angle_r	knee_angle_r_beta	ankle_angle_r	subtalar_angle_r	mtp_angle_r	hip_flexion_l	hip_adduction_l	hip_rotation_l	knee_angle_l	knee_angle_l_beta	ankle_angle_l	subtalar_angle_l	mtp_angle_l	lumbar_extension	lumbar_bending	lumbar_rotation	arm_flex_r	arm_add_r	arm_rot_r	elbow_flex_r	pro_sup_r	wrist_flex_r	wrist_dev_r	arm_flex_l	arm_add_l	arm_rot_l	elbow_flex_l	pro_sup_l	wrist_flex_l	wrist_dev_l
      1.28000000	     -0.47598487	     -7.78860968	     85.47423716	      0.20580593	      0.93709166	     -1.32387693	     30.01046660	     -1.26631905	     -0.64652122	     49.95418402	      0.87186499	      0.99386489	      0.00000000	      0.00000000	     10.28547614	      3.97560695	     -4.27811589	      7.78145245	      0.13581197	      0.57690380	      0.00000000	      0.00000000	      0.70002030	     -0.77801019	      0.25511305	      0.00000000	      0.00000000	      0.00000000	      0.00000000	      0.00000000	      0.00000000	      0.00000000	      0.00000000	      0.00000000	      0.00000000	      0.00000000	      0.00000000	      0.00000000	      0.00000000
      1.29000000	     -0.26729416	     -7.82661395	     85.89876609	      0.20531942	      0.93741492	     -1.34020181	     30.86151974	     -0.97702206	     -1.14640950	     46.32725988	      0.80856322	      0.96818291	      0.00000000	      0.00000000	      8.47668215	      3.99685105	     -3.60774826	      6.39195070	      0.11156059	      0.66318002	      0.00000000	      0.00000000	      0.60370281	     -0.52350744	     -0.30994210	      0.00000000	      0.00000000	      0.00000000	      0.00000000	      0.00000000	      0.00000000	      0.00000000	      0.00000000	      0.00000000	      0.00000000	      0.00000000	      0.00000000	      0.00000000	      0.00000000
      1.30000000	     -0.15475219	     -7.76729914	     86.29909971	      0.20491231	      0.93724784	     -1.35665874	     31.52749453	     -0.78310875	     -1.59274903	     42.53869598	      0.74244030	      0.87095359	     -0.00000000	      0.00000000	      6.54100028	      4.09640000	     -2.99421976	      4.95096942	      0.08641072	      0.78247647	      0.00000000	     -0.00000000	      0.41789033	     -0.39260380	     -0.83845214	     -0.00000000	     -0.00000000	      0.00000000	      0.00000000	      0.00000000	      0.00000000	     -0.00000000	     -0.00000000	     -0.00000000	     -0.00000000	      0.00000000	      0.00000000	     -0.00000000	      0.00000000
      1.31000000	     -0.09122116	     -7.95334717	     86.74529205	      0.20454046	      0.93615232	     -1.37309234	     32.39538457	     -0.64442390	     -2.08832784	     38.62782059	      0.67418265	      0.59147374	      0.00000000	      0.00000000	      4.99294025	      4.19846562	     -2.28090334	      3.74976809	      0.06544580	      1.04845866	      0.00000000	      0.00000000	      0.53186858	     -0.31857005	     -1.35837656	      0.00000000	      0.00000000	      0.00000000	      0.00000000	      0.00000000	      0.00000000	      0.00000000	      0.00000000	      0.00000000	      0.00000000	      0.00000000	      0.00000000	      0.00000000	      0.00000000
      1.32000000	     -0.12479102	     -7.74828422	     87.16844019	      0.20416037	      0.93499393	     -1.38994464	     32.75473595	     -0.65040856	     -2.63165957	     34.61163730	      0.60408703	      0.31352701	     -0.00000000	      0.00000000	      2.88533729	      4.41360111	     -1.61517939	      2.32907483	      0.04065002	      1.09739455	      0.00000000	     -0.00000000	      0.22183824	     -0.35517316	     -1.95426916	     -0.00000000	     -0.00000000	      0.00000000	      0.00000000	      0.00000000	     -0.00000000	     -0.00000000	     -0.00000000	      0.00000000	      0.00000000	      0.00000000	      0.00000000	      0.00000000	      0.00000000
      1.33000000	     -0.23296592	     -7.86341919	     87.59786178	      0.20387085	      0.93281327	     -1.40674407	     33.46112181	     -0.69035726	     -3.13280850	     30.62393077	      0.53448842	      0.07165936	      0.00000000	     -0.00000000	      1.24715279	      4.65309980	     -0.85013745	      1.15572090	      0.02017114	      1.42381125	     -0.00000000	     -0.00000000	      0.29662913	     -0.48534784	     -2.49569383	     -0.00000000	     -0.00000000	     -0.00000000	      0.00000000	      0.00000000	      0.00000000	     -0.00000000	     -0.00000000	      0.00000000	     -0.00000000	      0.00000000	      0.00000000	      0.00000000	     -0.00000000
      1.34000000	     -0.40092562	     -7.78756913	     88.00944125	      0.20363634	      0.93039551	     -1.42382653	     33.89791389	     -0.81273611	     -3.74462378	     26.61839023	      0.46457855	     -0.11800737	      0.00000000	     -0.00000000	     -0.64955634	      4.92879128	     -0.11832424	     -0.07327539	     -0.00127890	      1.65228017	     -0.00000000	      0.00000000	      0.16950923	     -0.67835034	     -3.04779698	      0.00000000	      0.00000000	     -0.00000000	      0.00000000	      0.00000000	     -0.00000000	      0.00000000	      0.00000000	      0.00000000	     -0.00000000	      0.00000000	      0.00000000	     -0.00000000	      0.00000000
      1.35000000	     -0.63380623	     -7.62458671	     88.39710897	      0.20351273	      0.92759103	     -1.44117324	     34.23643160	     -0.96652959	     -4.32043674	     22.74583391	      0.39698969	     -0.10122951	      0.00000000	      0.00000000	     -2.65526461	      5.24186505	      0.56771108	     -1.28453625	     -0.02241939	      1.85975077	      0.00000000	      0.00000000	     -0.03666536	     -0.96049490	     -3.61779144	      0.00000000	      0.00000000	      0.00000000	      0.00000000	      0.00000000	      0.00000000	      0.00000000	      0.00000000	      0.00000000	      0.00000000	      0.00000000	      0.00000000	      0.00000000	      0.00000000
      1.36000000	     -0.99314943	     -7.73800380	     88.77125347	      0.20342364	      0.92396583	     -1.45853611	     34.90063544	     -1.20896116	     -4.79908556	     19.07819237	      0.33297727	      0.14632237	      0.00000000	      0.00000000	     -4.22058688	      5.64360779	      1.32875704	     -2.18715123	     -0.03817299	      2.31535857	      0.00000000	      0.00000000	      0.09606352	     -1.37621883	     -4.15306915	      0.00000000	      0.00000000	      0.00000000	      0.00000000	      0.00000000	      0.00000000	      0.00000000	      0.00000000	      0.00000000	      0.00000000	      0.00000000	      0.00000000	      0.00000000	      0.00000000
      1.37000000	     -1.26586156	     -7.55229077	     89.09064079	      0.20350241	      0.92040944	     -1.47636079	     35.19664271	     -1.34366233	     -5.43175408	     15.63167615	      0.27282422	      0.40019850	      0.00000000	      0.00000000	     -6.23090202	      5.92885338	      1.97859598	     -3.24651419	     -0.05666236	      2.64685233	     -0.00000000	     -0.00000000	     -0.09841829	     -1.70322400	     -4.60870381	     -0.00000000	      0.00000000	      0.00000000	      0.00000000	      0.00000000	      0.00000000	      0.00000000	      0.00000000	      0.00000000	     -0.00000000	      0.00000000	      0.00000000	      0.00000000	      0.00000000
